<svg width="18" height="18" viewBox="0 0 18 18" fill="none" xmlns="http://www.w3.org/2000/svg">
<path d="M4.10508 12.2101C5.21506 12.6501 6 13.7334 6 15C6 16.6569 4.65685 18 3 18C1.34315 18 0 16.6569 0 15C0 13.6938 0.83481 12.5825 2 12.1707V5.82929C0.83481 5.41746 0 4.30622 0 3C0 1.34315 1.34315 0 3 0C4.65685 0 6 1.34315 6 3C6 4.30622 5.16519 5.41746 4 5.82929V8.9996C4.83566 8.3719 5.87439 8 7 8H11C12.3835 8 13.5482 7.0635 13.8949 5.78991C12.7849 5.34988 12 4.26661 12 3C12 1.34315 13.3431 0 15 0C16.6569 0 18 1.34315 18 3C18 4.3332 17.1303 5.46329 15.9274 5.85392C15.5222 8.2085 13.4703 10 11 10H7C5.61653 10 4.45179 10.9365 4.10508 12.2101Z" fill="url(#paint0_linear_4034_204)"/>
<defs>
<linearGradient id="paint0_linear_4034_204" x1="18" y1="0" x2="-7.58085" y2="18.5405" gradientUnits="userSpaceOnUse">
<stop stop-color="#AAD9D1"/>
<stop offset="1" stop-color="#017373"/>
</linearGradient>
</defs>
</svg>
