<svg width="21" height="20" viewBox="0 0 21 20" fill="none" xmlns="http://www.w3.org/2000/svg">
<path d="M0.881775 11.0121H6.38688C6.56676 14.3203 7.62313 17.3934 9.32614 20C4.8396 19.2978 1.33479 15.607 0.881775 11.0121ZM0.881775 8.98798C1.33479 4.39297 4.8396 0.7021 9.32614 0C7.62313 2.60658 6.56676 5.67972 6.38688 8.98798H0.881775ZM20.8818 8.98798H15.3766C15.1967 5.67972 14.1404 2.60658 12.4374 0C16.9239 0.7021 20.4287 4.39297 20.8818 8.98798ZM20.8818 11.0121C20.4287 15.607 16.9239 19.2978 12.4374 20C14.1404 17.3934 15.1967 14.3203 15.3766 11.0121H20.8818ZM8.40025 11.0121H13.3633C13.1908 13.8284 12.3034 16.45 10.8817 18.6951C9.46 16.45 8.57271 13.8284 8.40025 11.0121ZM8.40025 8.98798C8.57271 6.17157 9.46 3.54997 10.8817 1.30493C12.3034 3.54997 13.1908 6.17157 13.3633 8.98798H8.40025Z" fill="url(#paint0_linear_4034_208)"/>
<defs>
<linearGradient id="paint0_linear_4034_208" x1="20.8818" y1="0" x2="-7.54139" y2="20.6005" gradientUnits="userSpaceOnUse">
<stop stop-color="#AAD9D1"/>
<stop offset="1" stop-color="#017373"/>
</linearGradient>
</defs>
</svg>
