<svg width="88" height="16" viewBox="0 0 88 16" fill="none" xmlns="http://www.w3.org/2000/svg">
<g clip-path="url(#clip0_4031_2058)">
<path d="M8.40909 16C12.7773 16 16.3182 12.4184 16.3182 8V2.4C16.3182 1.76348 16.0682 1.15303 15.6232 0.702944C15.1783 0.252856 14.5747 0 13.9455 0L8.80455 0V3.5096C8.80455 4.3104 8.85279 5.14 9.26802 5.8216C9.56528 6.31008 9.96293 6.72818 10.434 7.04752C10.9051 7.36686 11.4386 7.57997 11.9982 7.6724L12.1497 7.6972C12.2121 7.71879 12.2663 7.75959 12.3047 7.81388C12.3431 7.86818 12.3637 7.93325 12.3637 8C12.3637 8.06675 12.3431 8.13182 12.3047 8.18612C12.2663 8.24041 12.2121 8.28121 12.1497 8.3028L11.9982 8.3276C11.1805 8.46272 10.4254 8.85423 9.8395 9.44685C9.25361 10.0395 8.86655 10.8033 8.73297 11.6304L8.70845 11.7836C8.68711 11.8468 8.64677 11.9016 8.59309 11.9404C8.53942 11.9792 8.47508 12.0001 8.40909 12.0001C8.3431 12.0001 8.27877 11.9792 8.22509 11.9404C8.17141 11.9016 8.13107 11.8468 8.10973 11.7836L8.08521 11.6304C7.99381 11.0643 7.78311 10.5247 7.4674 10.0482C7.15169 9.57173 6.73836 9.1695 6.25545 8.8688C5.58159 8.4488 4.76142 8.4 3.96972 8.4H0.509491C0.716314 12.6324 4.17377 16 8.40909 16Z" fill="#AAD9D1"/>
<path d="M0.5 7.6H3.96972C4.76142 7.6 5.58159 7.5512 6.25545 7.1312C6.7822 6.80292 7.22561 6.35441 7.55016 5.8216C7.96539 5.14 8.01364 4.3104 8.01364 3.5096V0H2.87273C2.24344 0 1.63993 0.252856 1.19496 0.702944C0.749983 1.15303 0.5 1.76348 0.5 2.4L0.5 7.6ZM18.8708 0.8C18.8708 1.01217 18.7875 1.21566 18.6392 1.36569C18.4909 1.51571 18.2897 1.6 18.0799 1.6C17.8702 1.6 17.669 1.51571 17.5207 1.36569C17.3724 1.21566 17.289 1.01217 17.289 0.8C17.289 0.587827 17.3724 0.384344 17.5207 0.234315C17.669 0.0842855 17.8702 0 18.0799 0C18.2897 0 18.4909 0.0842855 18.6392 0.234315C18.7875 0.384344 18.8708 0.587827 18.8708 0.8ZM84.2221 4.8416C86.4331 4.8416 87.5 6.4036 87.5 8.2128V11.6108H85.1862V8.616C85.1862 7.796 84.8904 7.1192 84.0421 7.1192C83.1939 7.1192 82.9111 7.796 82.9111 8.616V11.6104H80.5973V8.616C80.5973 7.796 80.3146 7.1192 79.466 7.1192C78.6177 7.1192 78.3219 7.796 78.3219 8.616V11.6104H76.0085V8.2124C76.0085 6.4032 77.075 4.8412 79.286 4.8412C80.4945 4.8412 81.3685 5.3228 81.7671 6.1168C82.191 5.3228 83.1168 4.8408 84.2221 4.8408V4.8416ZM71.8507 9.528C72.5961 9.528 72.9176 8.838 72.9176 8.0176V5.1016H75.231V8.304C75.231 10.2176 74.1257 11.806 71.8507 11.806C69.5752 11.806 68.4699 10.218 68.4699 8.304V5.1016H70.7837V8.0176C70.7837 8.8376 71.1049 9.528 71.8507 9.528ZM65.0678 11.8188C63.6153 11.8188 62.6769 11.3112 62.1241 10.322L63.7953 9.3716C64.0266 9.788 64.3734 9.9964 64.952 9.9964C65.4277 9.9964 65.646 9.8272 65.646 9.6188C65.646 8.8248 62.2526 9.632 62.2526 7.1068C62.2526 5.8828 63.2808 4.8936 65.0291 4.8936C66.5587 4.8936 67.3943 5.6484 67.7672 6.3776L66.096 7.3408C65.9548 6.9504 65.5175 6.716 65.0805 6.716C64.7463 6.716 64.5664 6.8592 64.5664 7.0544C64.5664 7.8616 67.9598 7.1196 67.9598 9.5668C67.9598 10.9336 66.6358 11.8188 65.0678 11.8188ZM56.984 14.6048H54.6702V8.3432C54.6702 6.3512 56.1484 4.9064 58.2051 4.9064C60.2105 4.9064 61.7401 6.4556 61.7401 8.3432C61.7401 10.426 60.3774 11.806 58.3336 11.806C57.8579 11.806 57.3826 11.6628 56.984 11.4412V14.6048ZM58.2051 9.606C58.9379 9.606 59.4263 9.0332 59.4263 8.356C59.4263 7.6664 58.9379 7.1064 58.2051 7.1064C57.4723 7.1064 56.984 7.6664 56.984 8.3564C56.984 9.0332 57.4723 9.606 58.2051 9.606ZM52.3524 4.412C51.5939 4.412 50.9644 3.774 50.9644 3.006C50.9644 2.238 51.5939 1.6 52.3524 1.6C53.1109 1.6 53.7408 2.238 53.7408 3.006C53.7408 3.774 53.1109 4.412 52.3524 4.412ZM51.1957 5.1016H53.5095V11.6108H51.1957V5.1016ZM46.7563 11.806C44.751 11.806 43.2214 10.244 43.2214 8.3432C43.2214 6.4556 44.751 4.8936 46.7563 4.8936C48.7617 4.8936 50.2913 6.4556 50.2913 8.3432C50.2913 10.244 48.7617 11.806 46.7563 11.806ZM46.7563 9.606C47.4891 9.606 47.9775 9.0332 47.9775 8.356C47.9775 7.6664 47.4891 7.0936 46.7563 7.0936C46.0235 7.0936 45.5352 7.6664 45.5352 8.356C45.5352 9.0332 46.0235 9.606 46.7563 9.606ZM38.8524 14.8C37.2587 14.8 36.1016 14.084 35.5104 12.808L37.4256 11.7668C37.6312 12.2096 38.0168 12.6652 38.8136 12.6652C39.6496 12.6652 40.2021 12.1312 40.2665 11.194C39.9581 11.4676 39.4693 11.6756 38.7369 11.6756C36.9498 11.6756 35.51 10.2828 35.51 8.33C35.51 6.4428 37.04 4.9064 39.0454 4.9064C41.1021 4.9064 42.5803 6.3516 42.5803 8.3432V10.9208C42.5803 13.264 40.9732 14.8 38.8524 14.8ZM39.0066 9.476C39.7006 9.476 40.2278 8.994 40.2278 8.278C40.2278 7.5752 39.701 7.1064 39.0066 7.1064C38.3252 7.1064 37.7854 7.5752 37.7854 8.2784C37.7854 8.9944 38.3252 9.4756 39.0066 9.4756V9.476ZM31.5855 11.806C29.5801 11.806 28.0501 10.244 28.0501 8.3432C28.0501 6.4556 29.5801 4.8936 31.5855 4.8936C33.5905 4.8936 35.1205 6.4556 35.1205 8.3432C35.1205 10.244 33.5908 11.806 31.5855 11.806ZM31.5855 9.606C32.3183 9.606 32.8067 9.0332 32.8067 8.356C32.8067 7.6664 32.3183 7.0936 31.5855 7.0936C30.8527 7.0936 30.3643 7.6664 30.3643 8.356C30.3643 9.0332 30.8527 9.606 31.5855 9.606ZM23.837 2.824V9.3976H27.6677V11.6108H23.5155C22.0503 11.6108 21.4591 10.8296 21.4591 9.5928V2.824H23.837Z" fill="#AAD9D1"/>
</g>
<defs>
<clipPath id="clip0_4031_2058">
<rect width="87" height="16" fill="white" transform="translate(0.5)"/>
</clipPath>
</defs>
</svg>
