<svg width="81" height="16" viewBox="0 0 81 16" fill="none" xmlns="http://www.w3.org/2000/svg">
<g clip-path="url(#clip0_4031_2044)">
<path fill-rule="evenodd" clip-rule="evenodd" d="M10.3223 4.67412C9.66452 4.2346 8.89116 4 8.10004 4V0C9.68228 0 11.229 0.469192 12.5446 1.34824C13.8602 2.22729 14.8856 3.47672 15.4911 4.93852C16.0966 6.40032 16.255 8.00888 15.9463 9.56072C15.6376 11.1126 14.8757 12.538 13.7569 13.6568C12.6381 14.7757 11.2126 15.5376 9.66076 15.8463C8.10892 16.155 6.50036 15.9965 5.03856 15.391C3.57676 14.7855 2.32733 13.7602 1.44828 12.4446C0.569229 11.129 0.100037 9.58224 0.100037 8H4.10004C4.10004 8.79112 4.33464 9.56448 4.77416 10.2223C5.21368 10.8801 5.8384 11.3928 6.56932 11.6955C7.3002 11.9983 8.10448 12.0775 8.8804 11.9231C9.65632 11.7688 10.369 11.3878 10.9285 10.8284C11.4879 10.269 11.8688 9.55628 12.0232 8.78036C12.1775 8.00444 12.0983 7.20016 11.7956 6.46928C11.4928 5.73836 10.9801 5.11364 10.3223 4.67412Z" fill="#AAD9D1"/>
<path fill-rule="evenodd" clip-rule="evenodd" d="M4.10003 2.11397e-06C4.10003 0.52529 3.99657 1.04543 3.79555 1.53074C3.59453 2.01604 3.2999 2.45699 2.92846 2.82843C2.55703 3.19987 2.11607 3.4945 1.63077 3.69552C1.14547 3.89654 0.625322 4 0.100037 4L0.100037 8C1.15061 8 2.1909 7.79308 3.16151 7.39104C4.13211 6.989 5.01403 6.39972 5.75687 5.65684C6.49975 4.914 7.08903 4.03208 7.49107 3.06147C7.89311 2.09086 8.10003 1.05057 8.10003 0L4.10003 2.11397e-06Z" fill="#AAD9D1"/>
<path d="M50.3476 5.78101H48.4068V11.9459H50.3476V5.78101Z" fill="#AAD9D1"/>
<path d="M48.6228 4.62664C48.8256 4.8296 49.0792 4.93108 49.3836 4.93108C49.688 4.93108 49.9376 4.8296 50.132 4.62664C50.3268 4.41524 50.424 4.16152 50.424 3.86554C50.424 3.56111 50.3268 3.3074 50.132 3.10445C49.9376 2.90148 49.688 2.8 49.3836 2.8C49.0792 2.8 48.8256 2.90148 48.6228 3.10445C48.428 3.3074 48.3308 3.56111 48.3308 3.86554C48.3308 4.16152 48.428 4.41524 48.6228 4.62664Z" fill="#AAD9D1"/>
<path d="M20.5625 11.9459V2.99026H22.5541V10.1954H26.5245V11.9459H20.5625Z" fill="#AAD9D1"/>
<path fill-rule="evenodd" clip-rule="evenodd" d="M30.111 12.0854C29.4768 12.0854 28.9017 11.9459 28.3858 11.6668C27.8784 11.3793 27.4768 10.9903 27.1808 10.4998C26.8848 10.0093 26.7368 9.45963 26.7368 8.85075C26.7368 8.24187 26.8848 7.69643 27.1808 7.21439C27.4768 6.73235 27.8784 6.35179 28.3858 6.07275C28.8932 5.78519 29.4683 5.64143 30.111 5.64143C30.7537 5.64143 31.3288 5.78099 31.8362 6.06003C32.3436 6.33911 32.7453 6.72391 33.0412 7.21439C33.3372 7.69643 33.4852 8.24187 33.4852 8.85075C33.4852 9.45963 33.3372 10.0093 33.0412 10.4998C32.7453 10.9903 32.3436 11.3793 31.8362 11.6668C31.3288 11.9459 30.7537 12.0854 30.111 12.0854ZM30.111 10.3222C30.3901 10.3222 30.6353 10.263 30.8468 10.1446C31.0582 10.0178 31.2188 9.84443 31.3288 9.62455C31.4472 9.39623 31.5064 9.13827 31.5064 8.85075C31.5064 8.56323 31.4472 8.31375 31.3288 8.10235C31.2104 7.88247 31.0455 7.71335 30.834 7.59495C30.6311 7.46807 30.3901 7.40467 30.111 7.40467C29.8404 7.40467 29.5994 7.46807 29.388 7.59495C29.1766 7.71335 29.0116 7.88247 28.8932 8.10235C28.7748 8.32223 28.7157 8.57591 28.7157 8.86343C28.7157 9.14251 28.7748 9.39623 28.8932 9.62455C29.0116 9.84443 29.1766 10.0178 29.388 10.1446C29.5994 10.263 29.8404 10.3222 30.111 10.3222Z" fill="#AAD9D1"/>
<path fill-rule="evenodd" clip-rule="evenodd" d="M35.0223 14.3561C35.5382 14.5928 36.1344 14.7112 36.8109 14.7112C37.4705 14.7112 38.0583 14.5802 38.5741 14.318C39.09 14.0558 39.4959 13.6922 39.7919 13.2271C40.0878 12.762 40.236 12.2123 40.236 11.578V5.78099H38.3331V6.19519C38.1916 6.07607 38.0308 5.97607 37.8511 5.89515C37.5212 5.73447 37.1449 5.65411 36.7221 5.65411C36.1555 5.65411 35.6523 5.78943 35.2126 6.06003C34.7728 6.32219 34.4261 6.68583 34.1724 7.15095C33.9187 7.60763 33.7919 8.12347 33.7919 8.69855C33.7919 9.26515 33.9187 9.78099 34.1724 10.2461C34.4261 10.7112 34.7728 11.0791 35.2126 11.3497C35.6523 11.6203 36.1555 11.7556 36.7221 11.7556C37.1365 11.7556 37.5128 11.6753 37.8511 11.5146C38.0149 11.4368 38.1629 11.3451 38.295 11.2394V11.6288C38.295 12.0601 38.1555 12.3941 37.8764 12.6309C37.6058 12.8677 37.2295 12.9861 36.7475 12.9861C36.3585 12.9861 36.0244 12.9184 35.7454 12.7831C35.4748 12.6478 35.2295 12.4491 35.0096 12.1869L33.8172 13.3793C34.1132 13.8022 34.5149 14.1278 35.0223 14.3561ZM37.7876 9.85287C37.5931 9.97127 37.3606 10.0305 37.09 10.0305C36.8194 10.0305 36.5826 9.97127 36.3796 9.85287C36.1851 9.73447 36.0329 9.57379 35.923 9.37083C35.813 9.15943 35.758 8.93531 35.758 8.69855C35.758 8.44483 35.813 8.21651 35.923 8.01355C36.0329 7.81059 36.1893 7.64991 36.3923 7.53151C36.5952 7.41311 36.8278 7.35391 37.09 7.35391C37.3606 7.35391 37.5931 7.41311 37.7876 7.53151C37.9906 7.64991 38.1428 7.81059 38.2443 8.01355C38.3542 8.21651 38.4092 8.44483 38.4092 8.69855C38.4092 8.95223 38.3542 9.18055 38.2443 9.38351C38.1428 9.57803 37.9906 9.73447 37.7876 9.85287Z" fill="#AAD9D1"/>
<path fill-rule="evenodd" clip-rule="evenodd" d="M44.3204 12.0854C43.686 12.0854 43.1108 11.9459 42.5952 11.6668C42.0876 11.3793 41.686 10.9903 41.39 10.4998C41.094 10.0093 40.946 9.45963 40.946 8.85075C40.946 8.24187 41.094 7.69643 41.39 7.21439C41.686 6.73235 42.0876 6.35179 42.5952 6.07275C43.1024 5.78519 43.6776 5.64143 44.3204 5.64143C44.9628 5.64143 45.538 5.78099 46.0452 6.06003C46.5528 6.33911 46.9544 6.72391 47.2504 7.21439C47.5464 7.69643 47.6944 8.24187 47.6944 8.85075C47.6944 9.45963 47.5464 10.0093 47.2504 10.4998C46.9544 10.9903 46.5528 11.3793 46.0452 11.6668C45.538 11.9459 44.9628 12.0854 44.3204 12.0854ZM44.3204 10.3222C44.5992 10.3222 44.8444 10.263 45.056 10.1446C45.2672 10.0178 45.428 9.84443 45.538 9.62455C45.6564 9.39623 45.7156 9.13827 45.7156 8.85075C45.7156 8.56323 45.6564 8.31375 45.538 8.10235C45.4196 7.88247 45.2548 7.71335 45.0432 7.59495C44.8404 7.46807 44.5992 7.40467 44.3204 7.40467C44.0496 7.40467 43.8084 7.46807 43.5972 7.59495C43.3856 7.71335 43.2208 7.88247 43.1024 8.10235C42.984 8.32223 42.9248 8.57591 42.9248 8.86343C42.9248 9.14251 42.984 9.39623 43.1024 9.62455C43.2208 9.84443 43.3856 10.0178 43.5972 10.1446C43.8084 10.263 44.0496 10.3222 44.3204 10.3222Z" fill="#AAD9D1"/>
<path fill-rule="evenodd" clip-rule="evenodd" d="M55.0124 12.0728C54.5984 12.0728 54.2176 11.9924 53.8708 11.8318C53.6884 11.7472 53.5236 11.6462 53.3764 11.5289V14.5464H51.4608V5.78099H53.4016V6.20647C53.5424 6.09131 53.6988 5.99175 53.8708 5.90783C54.2176 5.73867 54.5984 5.65411 55.0124 5.65411C55.596 5.65411 56.112 5.79367 56.56 6.07275C57.0168 6.35179 57.372 6.73235 57.6256 7.21439C57.888 7.69643 58.0188 8.24611 58.0188 8.86343C58.0188 9.48079 57.888 10.0305 57.6256 10.5125C57.372 10.9946 57.0168 11.3751 56.56 11.6542C56.112 11.9332 55.596 12.0728 55.0124 12.0728ZM54.6576 10.3222C54.9364 10.3222 55.1776 10.2588 55.3804 10.132C55.592 10.0051 55.7568 9.83171 55.8752 9.61187C55.9936 9.39199 56.0528 9.14251 56.0528 8.86343C56.0528 8.57591 55.9936 8.32223 55.8752 8.10235C55.7568 7.88247 55.592 7.71335 55.3804 7.59495C55.1776 7.46807 54.9408 7.40467 54.67 7.40467C54.3996 7.40467 54.1584 7.46807 53.9472 7.59495C53.744 7.71335 53.5836 7.88247 53.4652 8.10235C53.3468 8.32223 53.2876 8.57591 53.2876 8.86343C53.2876 9.14251 53.3424 9.39199 53.4524 9.61187C53.5708 9.83171 53.7356 10.0051 53.9472 10.132C54.1584 10.2588 54.3952 10.3222 54.6576 10.3222Z" fill="#AAD9D1"/>
<path d="M59.9184 11.9586C60.2736 12.0516 60.6328 12.0981 60.9964 12.0981C61.766 12.0981 62.3748 11.9206 62.8232 11.5654C63.2796 11.2102 63.508 10.7324 63.508 10.132C63.508 9.74295 63.4364 9.43003 63.2924 9.19327C63.1488 8.94803 62.9628 8.75351 62.7344 8.60975C62.506 8.46599 62.2648 8.35179 62.0112 8.26723C61.7576 8.18267 61.5164 8.11079 61.2884 8.05159C61.06 7.99239 60.874 7.92475 60.73 7.84863C60.5864 7.77251 60.5144 7.67103 60.5144 7.54419C60.5144 7.42579 60.5696 7.33699 60.6792 7.27779C60.7892 7.21015 60.954 7.17635 61.174 7.17635C61.4024 7.17635 61.6348 7.22283 61.8716 7.31587C62.1168 7.40887 62.3368 7.56959 62.5312 7.79791L63.6348 6.68163C63.356 6.32643 62.9924 6.06003 62.544 5.88247C62.1044 5.69643 61.6224 5.60339 61.098 5.60339C60.5992 5.60339 60.1636 5.68795 59.7916 5.85707C59.4192 6.02623 59.1316 6.25879 58.9288 6.55475C58.726 6.84227 58.6244 7.18479 58.6244 7.58227C58.6244 7.95435 58.6964 8.26303 58.84 8.50827C58.9836 8.74503 59.17 8.93111 59.398 9.06639C59.6264 9.20171 59.8676 9.30743 60.1212 9.38351C60.3748 9.45963 60.616 9.53151 60.8444 9.59919C61.0724 9.65839 61.2588 9.73027 61.4024 9.81483C61.5548 9.89095 61.6308 10.0051 61.6308 10.1573C61.6308 10.2757 61.5672 10.3687 61.4404 10.4364C61.322 10.504 61.1488 10.5379 60.9204 10.5379C60.5904 10.5379 60.286 10.4787 60.0072 10.3603C59.728 10.2334 59.4868 10.0601 59.284 9.84019L58.1804 10.9565C58.392 11.1848 58.6456 11.3878 58.9416 11.5654C59.246 11.7345 59.5716 11.8656 59.9184 11.9586Z" fill="#AAD9D1"/>
<path d="M67.0472 12.0854C66.4808 12.0854 65.9776 11.9713 65.538 11.743C65.1064 11.5062 64.7684 11.1848 64.5232 10.7789C64.2776 10.3645 64.1552 9.89097 64.1552 9.35817V5.78101H66.096V9.33281C66.096 9.54421 66.1296 9.72605 66.1976 9.87825C66.2736 10.0305 66.3836 10.1489 66.5272 10.2334C66.6712 10.318 66.8444 10.3603 67.0472 10.3603C67.3348 10.3603 67.5632 10.2715 67.7324 10.0939C67.9016 9.90785 67.986 9.65417 67.986 9.33281V5.78101H69.9268V9.34549C69.9268 9.88673 69.8044 10.3645 69.5588 10.7789C69.3136 11.1848 68.9756 11.5062 68.544 11.743C68.1128 11.9713 67.614 12.0854 67.0472 12.0854Z" fill="#AAD9D1"/>
<path d="M72.8324 5.78099H70.8916V11.9459H72.8324V8.34335C72.8324 8.13195 72.8748 7.95435 72.9592 7.81059C73.0524 7.66683 73.1752 7.55687 73.3272 7.48079C73.4796 7.39619 73.6528 7.35391 73.8472 7.35391C74.1264 7.35391 74.3588 7.44271 74.5448 7.62031C74.7396 7.78943 74.8368 8.03047 74.8368 8.34335V11.9459H76.7776V8.34335C76.7776 8.13195 76.82 7.95435 76.9044 7.81059C76.9976 7.66683 77.12 7.55687 77.2724 7.48079C77.4244 7.39619 77.598 7.35391 77.7924 7.35391C78.0716 7.35391 78.304 7.44271 78.49 7.62031C78.6844 7.78943 78.7816 8.03047 78.7816 8.34335V11.9459H80.7228V8.12771C80.7228 7.61187 80.6128 7.17211 80.3928 6.80847C80.1812 6.43635 79.8896 6.15307 79.5176 5.95859C79.154 5.75559 78.7352 5.65411 78.2616 5.65411C77.7796 5.65411 77.344 5.75983 76.9552 5.97127C76.7024 6.10595 76.4816 6.27979 76.2924 6.49275C76.116 6.26999 75.9016 6.08771 75.6484 5.94587C75.3104 5.75139 74.9256 5.65411 74.4944 5.65411C74.0376 5.65411 73.6276 5.75139 73.264 5.94587C73.1056 6.02679 72.962 6.12371 72.8324 6.23663V5.78099Z" fill="#AAD9D1"/>
</g>
<defs>
<clipPath id="clip0_4031_2044">
<rect width="80.8" height="16" fill="white" transform="translate(0.100037)"/>
</clipPath>
</defs>
</svg>
