<svg width="89" height="16" viewBox="0 0 89 16" fill="none" xmlns="http://www.w3.org/2000/svg">
<g clip-path="url(#clip0_4031_2066)">
<path d="M49.842 11.8095H51.7072V4.77409H49.842V11.8095ZM49.842 3.67696H51.7072V2.00381H49.842V3.67696Z" fill="#AAD9D1"/>
<path d="M52.9092 14.1135H54.7744V11.0141H54.8016C55.1992 11.6175 55.844 12.0152 56.8312 12.0152C58.6416 12.0152 59.876 10.5752 59.876 8.29868C59.876 6.10436 58.6828 4.58208 56.8176 4.58208C55.8576 4.58208 55.1992 5.03468 54.7468 5.6518H54.7056V4.77408H52.9092V14.1135ZM56.4336 10.4655C55.3228 10.4655 54.7332 9.62896 54.7332 8.35352C54.7332 7.0918 55.1992 6.09068 56.3652 6.09068C57.5172 6.09068 57.9832 7.02324 57.9832 8.35352C57.9832 9.6838 57.38 10.4655 56.4336 10.4655Z" fill="#AAD9D1"/>
<path d="M63.5964 12.0152C65.352 12.0152 66.5588 11.165 66.5588 9.75236C66.5588 8.10668 65.256 7.77752 64.0764 7.53068C63.0752 7.32496 62.1428 7.27008 62.1428 6.66668C62.1428 6.15924 62.6228 5.88496 63.3496 5.88496C64.1452 5.88496 64.6252 6.15924 64.7072 6.91352H66.394C66.2572 5.50096 65.2284 4.58208 63.3772 4.58208C61.7724 4.58208 60.5108 5.30896 60.5108 6.83124C60.5108 8.36724 61.7452 8.71008 63.0068 8.95696C63.9668 9.14896 64.858 9.21752 64.858 9.88952C64.858 10.3832 64.392 10.6987 63.5692 10.6987C62.7324 10.6987 62.1564 10.3421 62.0332 9.53296H60.3052C60.4148 11.0278 61.5532 12.0152 63.5964 12.0152Z" fill="#AAD9D1"/>
<path d="M73.64 11.8095V4.77408H71.7748V8.83352C71.7748 9.76608 71.24 10.4244 70.3624 10.4244C69.5668 10.4244 69.1968 9.9718 69.1968 9.14896V4.77408H67.3452V9.46436C67.3452 11.0004 68.2228 12.0015 69.7864 12.0015C70.774 12.0015 71.3224 11.6312 71.8024 10.9867H71.8436V11.8095H73.64Z" fill="#AAD9D1"/>
<path d="M74.8464 11.8095H76.7116V7.72268C76.7116 6.79008 77.2192 6.18668 77.9736 6.18668C78.6592 6.18668 79.0568 6.59808 79.0568 7.39352V11.8095H80.922V7.72268C80.922 6.79008 81.402 6.18668 82.1836 6.18668C82.8696 6.18668 83.2672 6.59808 83.2672 7.39352V11.8095H85.1324V7.07808C85.1324 5.54208 84.2956 4.58208 82.8144 4.58208C81.9232 4.58208 81.1824 5.04836 80.7024 5.81636H80.6752C80.3324 5.0758 79.6192 4.58208 78.7276 4.58208C77.754 4.58208 77.0684 5.0758 76.6844 5.72036H76.6432V4.77408H74.8464V11.8095Z" fill="#AAD9D1"/>
<path d="M1.22969 11.8095H3.09483V2.00381H1.22969V11.8095Z" fill="#AAD9D1"/>
<path d="M7.65538 12.0152C9.83594 12.0152 11.3308 10.397 11.3308 8.29868C11.3308 6.20036 9.83594 4.58208 7.65538 4.58208C5.47478 4.58208 3.97993 6.20036 3.97993 8.29868C3.97993 10.397 5.47478 12.0152 7.65538 12.0152ZM7.65538 10.589C6.50338 10.589 5.8725 9.67008 5.8725 8.29868C5.8725 6.92724 6.50338 5.99468 7.65538 5.99468C8.79366 5.99468 9.43822 6.92724 9.43822 8.29868C9.43822 9.67008 8.79366 10.589 7.65538 10.589Z" fill="#AAD9D1"/>
<path d="M15.2972 14.2095C16.3395 14.2095 17.2447 13.9627 17.8344 13.4141C18.3555 12.9341 18.6709 12.2621 18.6709 11.2747V4.77408H16.8744V5.51468H16.8469C16.4218 4.92496 15.7772 4.58208 14.8995 4.58208C13.1167 4.58208 11.8549 5.92608 11.8549 8.02436C11.8549 10.1501 13.3909 11.3844 14.9544 11.3844C15.8458 11.3844 16.3807 11.0278 16.7921 10.5615H16.8332V11.3295C16.8332 12.2895 16.3258 12.797 15.2698 12.797C14.4058 12.797 14.0081 12.4541 13.8572 12.0152H12.0058C12.1978 13.3867 13.3772 14.2095 15.2972 14.2095ZM15.2698 9.88952C14.3098 9.88952 13.6789 9.19008 13.6789 7.99696C13.6789 6.81752 14.3098 6.07696 15.2561 6.07696C16.3807 6.07696 16.9292 6.95468 16.9292 7.98324C16.9292 9.02552 16.4492 9.88952 15.2698 9.88952Z" fill="#AAD9D1"/>
<path d="M23.2045 12.0152C25.385 12.0152 26.8799 10.397 26.8799 8.29868C26.8799 6.20036 25.385 4.58208 23.2045 4.58208C21.0239 4.58208 19.529 6.20036 19.529 8.29868C19.529 10.397 21.0239 12.0152 23.2045 12.0152ZM23.2045 10.589C22.0525 10.589 21.4216 9.67008 21.4216 8.29868C21.4216 6.92724 22.0525 5.99468 23.2045 5.99468C24.3427 5.99468 24.9873 6.92724 24.9873 8.29868C24.9873 9.67008 24.3427 10.589 23.2045 10.589Z" fill="#AAD9D1"/>
<path d="M85.81 3.61905C85.81 3.30346 86.066 3.04762 86.3816 3.04762H87.5244C87.84 3.04762 88.096 3.30346 88.096 3.61905C88.096 3.93464 87.84 4.19048 87.5244 4.19048H86.3816C86.066 4.19048 85.81 3.93464 85.81 3.61905Z" fill="#AAD9D1"/>
<path fill-rule="evenodd" clip-rule="evenodd" d="M38.1911 0C42.6092 0 46.1912 3.58172 46.1912 8C46.1912 12.4183 42.6092 16 38.1911 16C33.7728 16 30.1911 12.4183 30.1911 8C30.1911 3.58172 33.7728 0 38.1911 0ZM37.9019 0.598636C36.9893 0.727076 36.1202 1.46043 35.4456 2.68696C35.2499 3.04273 35.0734 3.43578 34.9195 3.86018C35.8368 3.62967 36.8445 3.49377 37.9019 3.47275V0.598636ZM34.2434 4.05232C34.4347 3.45183 34.6688 2.89936 34.9389 2.40826C35.2733 1.80024 35.6702 1.27518 36.1173 0.871908C33.6858 1.57809 31.7692 3.49472 31.063 5.92628C31.4663 5.47912 31.9913 5.08224 32.5993 4.74784C33.0905 4.47772 33.6429 4.24364 34.2434 4.05232ZM34.0513 4.72844C33.8207 5.64572 33.6849 6.65336 33.6638 7.71084H30.7897C30.9181 6.79816 31.6515 5.92912 32.8781 5.25456C33.2338 5.05888 33.6269 4.88232 34.0513 4.72844ZM34.2423 7.71084C34.2661 6.5568 34.4323 5.47336 34.7072 4.51608C35.6645 4.2412 36.7479 4.07504 37.9019 4.05116V5.30032C37.4714 6.40248 36.5933 7.28048 35.4911 7.71084H34.2423ZM33.6638 8.28916H30.7897C30.9181 9.20184 31.6515 10.0708 32.8781 10.7454C33.2338 10.9411 33.6269 11.1177 34.0513 11.2716C33.8207 10.3543 33.6849 9.34664 33.6638 8.28916ZM34.7072 11.4839C34.4323 10.5266 34.2661 9.4432 34.2423 8.28916H35.4911C36.5933 8.71952 37.4714 9.59752 37.9019 10.6997V11.9488C36.7479 11.925 35.6645 11.7588 34.7072 11.4839ZM34.2434 11.9477C33.6429 11.7564 33.0905 11.5223 32.5993 11.2522C31.9913 10.9178 31.4663 10.5209 31.063 10.0737C31.7692 12.5053 33.6858 14.4219 36.1173 15.1281C35.6702 14.7248 35.2733 14.1998 34.9389 13.5917C34.6688 13.1006 34.4347 12.5482 34.2434 11.9477ZM37.9019 15.4014C36.9893 15.2729 36.1202 14.5396 35.4456 13.313C35.2499 12.9573 35.0734 12.5642 34.9195 12.1398C35.8368 12.3703 36.8445 12.5062 37.9019 12.5272V15.4014ZM40.2648 15.1281C40.712 14.7248 41.1088 14.1998 41.4432 13.5917C41.7132 13.1006 41.9476 12.5482 42.1388 11.9477C42.7392 11.7564 43.2916 11.5223 43.7828 11.2522C44.3908 10.9178 44.916 10.5209 45.3192 10.0737C44.6128 12.5053 42.6964 14.4219 40.2648 15.1281ZM41.4628 12.1398C41.3088 12.5642 41.132 12.9573 40.9364 13.313C40.2619 14.5396 39.3929 15.2729 38.4802 15.4014V12.5272C39.5377 12.5062 40.5453 12.3703 41.4628 12.1398ZM42.3308 11.2716C42.7552 11.1177 43.1484 10.9411 43.504 10.7454C44.7308 10.0709 45.464 9.20184 45.5924 8.28916H42.7184C42.6972 9.34664 42.5612 10.3543 42.3308 11.2716ZM42.14 8.28916C42.116 9.4432 41.95 10.5266 41.6748 11.4839C40.7177 11.7588 39.6343 11.925 38.4802 11.9488V10.7006C38.9106 9.59804 39.7889 8.71964 40.8914 8.28916H42.14ZM42.7184 7.71084H45.5924C45.464 6.79816 44.7308 5.92912 43.504 5.25456C43.1484 5.05888 42.7552 4.88232 42.3308 4.72844C42.5612 5.64572 42.6972 6.65336 42.7184 7.71084ZM41.6748 4.51608C41.95 5.47336 42.116 6.5568 42.14 7.71084H40.8914C39.7889 7.28036 38.9106 6.40196 38.4802 5.2994V4.05116C39.6343 4.07504 40.7177 4.2412 41.6748 4.51608ZM42.1388 4.05232C42.7392 4.24364 43.2916 4.47772 43.7828 4.74784C44.3908 5.08224 44.916 5.47912 45.3192 5.92628C44.6128 3.49472 42.6964 1.57809 40.2648 0.871908C40.712 1.27518 41.1088 1.80024 41.4432 2.40826C41.7132 2.89936 41.9476 3.45183 42.1388 4.05232ZM38.4802 0.598636C39.3929 0.727076 40.2619 1.46043 40.9364 2.68696C41.132 3.04274 41.3088 3.43578 41.4628 3.86018C40.5453 3.62967 39.5377 3.49377 38.4802 3.47275V0.598636Z" fill="#AAD9D1"/>
</g>
<defs>
<clipPath id="clip0_4031_2066">
<rect width="87.2" height="16" fill="white" transform="translate(0.900024)"/>
</clipPath>
</defs>
</svg>
