<svg width="71" height="16" viewBox="0 0 71 16" fill="none" xmlns="http://www.w3.org/2000/svg">
<g filter="url(#filter0_d_4031_2063)">
<path fill-rule="evenodd" clip-rule="evenodd" d="M6.09998 11.2C5.56954 11.2 5.06083 10.9893 4.68576 10.6142C4.31069 10.2391 4.09998 9.73043 4.09998 9.2V0H0.0999756V9.2C0.0999756 12.5136 2.78638 15.2 6.09998 15.2H10.5V11.2H6.09998ZM18.1 4C17.6272 4 17.1591 4.09312 16.7223 4.27403C16.2855 4.45495 15.8887 4.72012 15.5544 5.05442C15.2201 5.38871 14.9549 5.78557 14.774 6.22234C14.5931 6.65911 14.5 7.12724 14.5 7.6C14.5 8.07276 14.5931 8.54089 14.774 8.97766C14.9549 9.41443 15.2201 9.81129 15.5544 10.1456C15.8887 10.4799 16.2855 10.745 16.7223 10.926C17.1591 11.1069 17.6272 11.2 18.1 11.2C19.0548 11.2 19.9704 10.8207 20.6456 10.1456C21.3207 9.47045 21.7 8.55478 21.7 7.6C21.7 6.64522 21.3207 5.72955 20.6456 5.05442C19.9704 4.37928 19.0548 4 18.1 4ZM10.5 7.6C10.5 3.4028 13.9028 0 18.1 0C22.2972 0 25.7 3.4028 25.7 7.6C25.7 11.7972 22.2972 15.2 18.1 15.2C13.9028 15.2 10.5 11.7972 10.5 7.6ZM61.3 4C60.3452 4 59.4295 4.37928 58.7544 5.05442C58.0793 5.72955 57.7 6.64522 57.7 7.6C57.7 8.55478 58.0793 9.47045 58.7544 10.1456C59.4295 10.8207 60.3452 11.2 61.3 11.2C62.2548 11.2 63.1704 10.8207 63.8456 10.1456C64.5207 9.47045 64.9 8.55478 64.9 7.6C64.9 6.64522 64.5207 5.72955 63.8456 5.05442C63.1704 4.37928 62.2548 4 61.3 4ZM53.7 7.6C53.7 3.4028 57.1028 0 61.3 0C65.4972 0 68.9 3.4028 68.9 7.6C68.9 11.7972 65.4972 15.2 61.3 15.2C57.1028 15.2 53.7 11.7972 53.7 7.6ZM34.1 0C29.9028 0 26.5 3.4028 26.5 7.6C26.5 11.7972 29.9028 15.2 34.1 15.2H45.3C46.0876 15.2 46.8472 15.08 47.5616 14.8576L49.7 16L52.0072 11.6784C52.5933 10.5783 52.8999 9.35091 52.9 8.1044V7.6C52.9 3.4028 49.4972 0 45.3 0H34.1ZM48.9 7.6C48.9 6.64522 48.5207 5.72955 47.8456 5.05442C47.1704 4.37928 46.2548 4 45.3 4H34.1C33.6272 4 33.1591 4.09312 32.7223 4.27403C32.2855 4.45495 31.8887 4.72012 31.5544 5.05442C31.2201 5.38871 30.9549 5.78557 30.774 6.22234C30.5931 6.65911 30.5 7.12724 30.5 7.6C30.5 8.07276 30.5931 8.54089 30.774 8.97766C30.9549 9.41443 31.2201 9.81129 31.5544 10.1456C31.8887 10.4799 32.2855 10.745 32.7223 10.926C33.1591 11.1069 33.6272 11.2 34.1 11.2H45.3C46.2499 11.2 47.1614 10.8246 47.8357 10.1555C48.51 9.48642 48.8926 8.57792 48.9 7.628V7.6Z" fill="#AAD9D1"/>
</g>
<defs>
<filter id="filter0_d_4031_2063" x="-3.90002" y="0" width="76.8" height="24" filterUnits="userSpaceOnUse" color-interpolation-filters="sRGB">
<feFlood flood-opacity="0" result="BackgroundImageFix"/>
<feColorMatrix in="SourceAlpha" type="matrix" values="0 0 0 0 0 0 0 0 0 0 0 0 0 0 0 0 0 0 127 0" result="hardAlpha"/>
<feOffset dy="4"/>
<feGaussianBlur stdDeviation="2"/>
<feComposite in2="hardAlpha" operator="out"/>
<feColorMatrix type="matrix" values="0 0 0 0 0 0 0 0 0 0 0 0 0 0 0 0 0 0 0.25 0"/>
<feBlend mode="normal" in2="BackgroundImageFix" result="effect1_dropShadow_4031_2063"/>
<feBlend mode="normal" in="SourceGraphic" in2="effect1_dropShadow_4031_2063" result="shape"/>
</filter>
</defs>
</svg>
