<svg width="19" height="19" viewBox="0 0 19 19" fill="none" xmlns="http://www.w3.org/2000/svg">
<path d="M18.1144 9.46688V9.47136H15.3146V9.39978C15.3146 6.07211 12.6169 3.37436 9.29011 3.37436C9.25432 3.37436 9.21853 3.37436 9.18274 3.37526V0.552246C14.1058 0.561194 18.0965 4.54563 18.1144 9.46688Z" fill="url(#paint0_linear_4032_2683)"/>
<path d="M18.1126 9.35596C18.1126 9.30049 18.1099 9.24591 18.109 9.19043C18.1108 9.24591 18.1117 9.30049 18.1126 9.35596Z" fill="url(#paint1_linear_4032_2683)"/>
<path d="M18.1072 9.14574C18.1054 9.07863 18.1001 9.01242 18.0965 8.94531C18.0965 8.95516 18.0983 8.9641 18.0983 8.97395C18.1028 9.03121 18.1054 9.08848 18.1072 9.14574Z" fill="url(#paint2_linear_4032_2683)"/>
<path d="M18.0705 8.61767C18.0705 8.61767 18.0705 8.61589 18.0705 8.61499C18.0723 8.63825 18.0759 8.66241 18.0777 8.68568C18.0768 8.67136 18.075 8.65794 18.0732 8.64452C18.0723 8.63557 18.0714 8.62662 18.0705 8.61767Z" fill="url(#paint3_linear_4032_2683)"/>
<path d="M18.0705 8.6151C18.067 8.57394 18.0616 8.53367 18.058 8.49341C18.0607 8.5113 18.0625 8.5283 18.0652 8.5462C18.0679 8.56946 18.0696 8.59183 18.0714 8.6151H18.0705Z" fill="url(#paint4_linear_4032_2683)"/>
<path d="M18.0786 8.70011C18.0786 8.69474 18.0777 8.69026 18.0777 8.68579C18.0804 8.70458 18.0822 8.72337 18.0831 8.74216C18.084 8.75379 18.0849 8.76453 18.0849 8.77616C18.0831 8.75111 18.0813 8.72516 18.0786 8.70011Z" fill="url(#paint5_linear_4032_2683)"/>
<path d="M18.0079 8.11669C18.007 8.11043 18.0061 8.10416 18.0052 8.0979C18.0052 8.10237 18.007 8.10685 18.007 8.11043C18.007 8.11222 18.007 8.11401 18.007 8.11669H18.0079Z" fill="url(#paint6_linear_4032_2683)"/>
<path d="M18.0079 8.11938C18.0079 8.11938 18.0079 8.11759 18.0079 8.1167C18.0169 8.17754 18.0276 8.23839 18.0347 8.30013V8.30371C18.0258 8.24197 18.0177 8.18112 18.0079 8.11938Z" fill="url(#paint7_linear_4032_2683)"/>
<path d="M18.1144 9.46691C18.1144 9.42933 18.1135 9.39264 18.1126 9.35596C18.1126 9.38191 18.1144 9.40696 18.1144 9.43291V9.46691Z" fill="url(#paint8_linear_4032_2683)"/>
<path d="M18.1144 18.4192V18.4478H15.3137C15.3146 18.4272 15.3146 18.4067 15.3146 18.3861C15.3146 17.6622 15.1867 16.9679 14.9522 16.3245C14.9469 16.3075 14.9406 16.2905 14.9335 16.2735C14.5952 15.368 14.044 14.5654 13.3417 13.9265C13.3291 13.9149 13.3166 13.9041 13.3041 13.8934C12.2384 12.9405 10.8318 12.3607 9.29011 12.3607C9.25432 12.3607 9.21853 12.3607 9.18274 12.3616V9.47144C11.3651 9.47501 13.364 10.2606 14.9147 11.5625C14.9209 11.567 14.9272 11.5724 14.9335 11.5786C15.7182 12.2399 16.3875 13.0344 16.9055 13.9265C16.9127 13.9373 16.919 13.948 16.9252 13.9596C17.6822 15.2723 18.1144 16.7952 18.1144 18.4192Z" fill="url(#paint9_linear_4032_2683)"/>
<path d="M9.16663 9.46688V9.47136H6.36688V9.43288C6.36688 7.8885 5.78528 6.48102 4.83055 5.41445C4.82071 5.40282 4.81087 5.39208 4.80103 5.38134C4.13084 4.64405 3.27991 4.07408 2.31892 3.74122C2.30461 3.73496 2.29029 3.73049 2.27508 3.72512C1.66842 3.52021 1.01882 3.40837 0.342366 3.40837C0.301207 3.40837 0.260047 3.40837 0.218887 3.41016V0.552246H0.985709C2.31624 0.664093 3.56355 1.06853 4.66413 1.70024C4.68381 1.71098 4.7026 1.72172 4.72139 1.73335C5.63854 2.26842 6.45189 2.96187 7.12476 3.77612C7.13818 3.79312 7.1516 3.81012 7.16592 3.82712C8.41681 5.36524 9.16663 7.32837 9.16663 9.46688Z" fill="url(#paint10_linear_4032_2683)"/>
<path d="M9.18274 15.4906V18.3807H9.16664C7.54889 18.3807 6.03045 17.9512 4.7214 17.1996C4.32412 16.9723 3.94563 16.7146 3.58951 16.4301C3.10812 16.0462 2.66789 15.6141 2.27598 15.1407C1.96102 14.7613 1.67648 14.3551 1.42773 13.9265C0.664491 12.6166 0.226051 11.0955 0.219788 9.47144H3.26471C3.26471 10.1541 3.37924 10.8109 3.58951 11.422C3.85347 12.1924 4.26864 12.8922 4.80103 13.4854C4.93883 13.6393 5.08468 13.7869 5.23768 13.9265C5.79513 14.4321 6.44742 14.8356 7.16592 15.1058C7.79495 15.3438 8.47408 15.4781 9.18274 15.4906Z" fill="url(#paint11_linear_4032_2683)"/>
<defs>
<linearGradient id="paint0_linear_4032_2683" x1="18.1144" y1="0.552246" x2="5.43338" y2="9.75607" gradientUnits="userSpaceOnUse">
<stop stop-color="#AAD9D1"/>
<stop offset="1" stop-color="#017373"/>
</linearGradient>
<linearGradient id="paint1_linear_4032_2683" x1="18.1126" y1="9.19043" x2="18.1048" y2="9.19055" gradientUnits="userSpaceOnUse">
<stop stop-color="#AAD9D1"/>
<stop offset="1" stop-color="#017373"/>
</linearGradient>
<linearGradient id="paint2_linear_4032_2683" x1="18.1072" y1="8.94531" x2="18.084" y2="8.94621" gradientUnits="userSpaceOnUse">
<stop stop-color="#AAD9D1"/>
<stop offset="1" stop-color="#017373"/>
</linearGradient>
<linearGradient id="paint3_linear_4032_2683" x1="18.0777" y1="8.61499" x2="18.0623" y2="8.61612" gradientUnits="userSpaceOnUse">
<stop stop-color="#AAD9D1"/>
<stop offset="1" stop-color="#017373"/>
</linearGradient>
<linearGradient id="paint4_linear_4032_2683" x1="18.0714" y1="8.49341" x2="18.0425" y2="8.49572" gradientUnits="userSpaceOnUse">
<stop stop-color="#AAD9D1"/>
<stop offset="1" stop-color="#017373"/>
</linearGradient>
<linearGradient id="paint5_linear_4032_2683" x1="18.0849" y1="8.68579" x2="18.0694" y2="8.68668" gradientUnits="userSpaceOnUse">
<stop stop-color="#AAD9D1"/>
<stop offset="1" stop-color="#017373"/>
</linearGradient>
<linearGradient id="paint6_linear_4032_2683" x1="18.0079" y1="8.0979" x2="18.0021" y2="8.0985" gradientUnits="userSpaceOnUse">
<stop stop-color="#AAD9D1"/>
<stop offset="1" stop-color="#017373"/>
</linearGradient>
<linearGradient id="paint7_linear_4032_2683" x1="18.0347" y1="8.1167" x2="17.9772" y2="8.12269" gradientUnits="userSpaceOnUse">
<stop stop-color="#AAD9D1"/>
<stop offset="1" stop-color="#017373"/>
</linearGradient>
<linearGradient id="paint8_linear_4032_2683" x1="18.1144" y1="9.35596" x2="18.1105" y2="9.356" gradientUnits="userSpaceOnUse">
<stop stop-color="#AAD9D1"/>
<stop offset="1" stop-color="#017373"/>
</linearGradient>
<linearGradient id="paint9_linear_4032_2683" x1="18.1144" y1="9.47144" x2="5.37749" y2="18.6569" gradientUnits="userSpaceOnUse">
<stop stop-color="#AAD9D1"/>
<stop offset="1" stop-color="#017373"/>
</linearGradient>
<linearGradient id="paint10_linear_4032_2683" x1="9.16663" y1="0.552246" x2="-3.52143" y2="9.77781" gradientUnits="userSpaceOnUse">
<stop stop-color="#AAD9D1"/>
<stop offset="1" stop-color="#017373"/>
</linearGradient>
<linearGradient id="paint11_linear_4032_2683" x1="9.18274" y1="9.47144" x2="-3.50223" y2="18.7206" gradientUnits="userSpaceOnUse">
<stop stop-color="#AAD9D1"/>
<stop offset="1" stop-color="#017373"/>
</linearGradient>
</defs>
</svg>
