<svg width="21" height="21" viewBox="0 0 21 21" fill="none" xmlns="http://www.w3.org/2000/svg">
<path d="M11.2364 17.4416C11.7429 16.0341 12.5598 14.7098 13.6863 13.577L13.7069 13.5565C14.8352 12.4281 16.1532 11.6094 17.5553 11.0985C18.4286 10.7809 19.3341 10.5822 20.2459 10.5044C19.3368 10.4543 18.434 10.2834 17.5634 9.99346C16.1022 9.50849 14.7332 8.6862 13.5736 7.52657C12.4148 6.36784 11.5916 4.99704 11.1067 3.53677C10.7953 2.60084 10.6226 1.62732 10.5877 0.648438L10.5501 0.686018C10.483 1.65774 10.2799 2.62231 9.94168 3.55019C9.43256 4.94604 8.61563 6.25957 7.49358 7.38519L7.48553 7.39325C6.36437 8.5144 5.05442 9.33133 3.66126 9.84225C2.72711 10.1849 1.75628 10.3898 0.778295 10.4579L0.766663 10.4695C1.74376 10.5044 2.71459 10.6771 3.64873 10.9867C5.11079 11.4725 6.48338 12.2948 7.6439 13.4562C8.80532 14.6177 9.62672 15.9885 10.1126 17.4514C10.4231 18.3856 10.5958 19.3564 10.6307 20.3335L10.6369 20.3272C10.6987 19.3492 10.8982 18.3766 11.2346 17.4407L11.2364 17.4416Z" fill="url(#paint0_linear_4032_2600)"/>
<defs>
<linearGradient id="paint0_linear_4032_2600" x1="20.2459" y1="0.648438" x2="-7.63692" y2="20.646" gradientUnits="userSpaceOnUse">
<stop stop-color="#AAD9D1"/>
<stop offset="1" stop-color="#017373"/>
</linearGradient>
</defs>
</svg>
