<svg width="19" height="19" viewBox="0 0 19 19" fill="none" xmlns="http://www.w3.org/2000/svg">
<path d="M18.8706 4.60838V9.64686C14.1918 9.60122 10.3792 5.93533 10.1018 1.31472V0.462891H14.8852C14.8843 0.486155 14.8843 0.509419 14.8843 0.532683C14.8843 2.75441 16.6605 4.56096 18.8706 4.60838Z" fill="url(#paint0_linear_4032_2670)"/>
<path d="M9.38596 0.819905C9.38596 5.62663 5.56617 9.53948 0.796127 9.6907V4.64686C2.91406 4.50011 4.58639 2.73562 4.58639 0.580106C4.58639 0.540736 4.5855 0.502261 4.5846 0.462891H9.37791C9.38328 0.581001 9.38596 0.700006 9.38596 0.819905Z" fill="url(#paint1_linear_4032_2670)"/>
<path d="M9.32512 18.5373H4.52555C4.28754 16.6288 2.73063 15.13 0.796127 14.9824V10.4172C5.30221 10.5729 8.95379 14.0885 9.32512 18.5373Z" fill="url(#paint2_linear_4032_2670)"/>
<path d="M18.8706 10.4424V15.0022C16.8502 15.0541 15.1966 16.5752 14.9371 18.5374H10.1358C10.5277 14.0358 14.2804 10.4961 18.8706 10.4424Z" fill="url(#paint3_linear_4032_2670)"/>
<defs>
<linearGradient id="paint0_linear_4032_2670" x1="18.8706" y1="0.462891" x2="6.01756" y2="9.35735" gradientUnits="userSpaceOnUse">
<stop stop-color="#AAD9D1"/>
<stop offset="1" stop-color="#017373"/>
</linearGradient>
<linearGradient id="paint1_linear_4032_2670" x1="9.38596" y1="0.462891" x2="-3.40983" y2="9.09583" gradientUnits="userSpaceOnUse">
<stop stop-color="#AAD9D1"/>
<stop offset="1" stop-color="#017373"/>
</linearGradient>
<linearGradient id="paint2_linear_4032_2670" x1="9.32512" y1="10.4172" x2="-2.37971" y2="19.3279" gradientUnits="userSpaceOnUse">
<stop stop-color="#AAD9D1"/>
<stop offset="1" stop-color="#017373"/>
</linearGradient>
<linearGradient id="paint3_linear_4032_2670" x1="18.8706" y1="10.4424" x2="7.12188" y2="19.6306" gradientUnits="userSpaceOnUse">
<stop stop-color="#AAD9D1"/>
<stop offset="1" stop-color="#017373"/>
</linearGradient>
</defs>
</svg>
