<svg width="38" height="38" viewBox="0 0 38 38" fill="none" xmlns="http://www.w3.org/2000/svg">
<rect width="38" height="38" rx="8" fill="url(#paint0_linear_4018_718)"/>
<path fill-rule="evenodd" clip-rule="evenodd" d="M20.6425 31.5C21.35 31.5 21.9763 31.5025 22.5737 31.2975C23.17 31.0925 23.665 30.7062 24.2225 30.2725L24.335 30.1838L29.0875 26.4875L29.25 26.3625C30.035 25.7537 30.7337 25.2125 31.1187 24.425C31.5037 23.6375 31.5025 22.7537 31.5 21.76V12.6675C31.5 11.56 31.5 10.605 31.3975 9.84C31.2875 9.02125 31.0387 8.235 30.4013 7.59875C29.7638 6.96125 28.9787 6.7125 28.16 6.6025C27.395 6.5 26.44 6.5 25.3325 6.5H12.6675C11.56 6.5 10.605 6.5 9.84 6.6025C9.02125 6.7125 8.235 6.96125 7.59875 7.59875C6.96125 8.23625 6.7125 9.02125 6.6025 9.84C6.5 10.605 6.5 11.56 6.5 12.6675V25.3325C6.5 26.44 6.5 27.395 6.6025 28.16C6.7125 28.9787 6.96125 29.765 7.59875 30.4013C8.23625 31.0387 9.02125 31.2875 9.84 31.3975C10.605 31.5 11.56 31.5 12.6675 31.5H20.6425ZM26.5 19C26.5 18.6685 26.3683 18.3505 26.1339 18.1161C25.8995 17.8817 25.5815 17.75 25.25 17.75H19.41C18.4938 17.75 17.75 18.4938 17.75 19.41V25.25C17.75 25.5815 17.8817 25.8995 18.1161 26.1339C18.3505 26.3683 18.6685 26.5 19 26.5C19.3315 26.5 19.6495 26.3683 19.8839 26.1339C20.1183 25.8995 20.25 25.5815 20.25 25.25V20.25H25.25C25.5815 20.25 25.8995 20.1183 26.1339 19.8839C26.3683 19.6495 26.5 19.3315 26.5 19Z" fill="#FAFAFA"/>
<defs>
<linearGradient id="paint0_linear_4018_718" x1="38" y1="0" x2="-16.004" y2="39.141" gradientUnits="userSpaceOnUse">
<stop stop-color="#AAD9D1"/>
<stop offset="1" stop-color="#017373"/>
</linearGradient>
</defs>
</svg>
