<svg width="40" height="41" viewBox="0 0 40 41" fill="none" xmlns="http://www.w3.org/2000/svg">
<rect x="3.05176e-05" y="0.27002" width="40" height="40" rx="20" fill="#017373"/>
<path d="M27.0584 11.9366H12.9417C12.783 11.9344 12.6255 11.9635 12.478 12.0222C12.3306 12.0809 12.1961 12.1681 12.0824 12.2787C11.9686 12.3894 11.8778 12.5214 11.815 12.6671C11.7523 12.8129 11.7189 12.9696 11.7167 13.1283V27.4116C11.7189 27.5703 11.7523 27.727 11.815 27.8728C11.8778 28.0186 11.9686 28.1506 12.0824 28.2612C12.1961 28.3719 12.3306 28.459 12.478 28.5177C12.6255 28.5764 12.783 28.6055 12.9417 28.6033H27.0584C27.2171 28.6055 27.3746 28.5764 27.5221 28.5177C27.6695 28.459 27.804 28.3719 27.9177 28.2612C28.0315 28.1506 28.1223 28.0186 28.185 27.8728C28.2478 27.727 28.2812 27.5703 28.2834 27.4116V13.1283C28.2812 12.9696 28.2478 12.8129 28.185 12.6671C28.1223 12.5214 28.0315 12.3894 27.9177 12.2787C27.804 12.1681 27.6695 12.0809 27.5221 12.0222C27.3746 11.9635 27.2171 11.9344 27.0584 11.9366ZM16.7417 25.8866H14.2417V18.3866H16.7417V25.8866ZM15.4917 17.3366C15.1469 17.3366 14.8163 17.1997 14.5725 16.9559C14.3287 16.7121 14.1917 16.3814 14.1917 16.0366C14.1917 15.6919 14.3287 15.3612 14.5725 15.1174C14.8163 14.8736 15.1469 14.7366 15.4917 14.7366C15.6748 14.7159 15.8602 14.734 16.0358 14.7899C16.2113 14.8457 16.3732 14.938 16.5106 15.0608C16.648 15.1835 16.758 15.3339 16.8333 15.502C16.9086 15.6702 16.9475 15.8524 16.9475 16.0366C16.9475 16.2209 16.9086 16.4031 16.8333 16.5712C16.758 16.7394 16.648 16.8898 16.5106 17.0125C16.3732 17.1352 16.2113 17.2275 16.0358 17.2834C15.8602 17.3393 15.6748 17.3574 15.4917 17.3366ZM25.7584 25.8866H23.2584V21.8616C23.2584 20.8533 22.9 20.195 21.9917 20.195C21.7106 20.197 21.4369 20.2852 21.2074 20.4476C20.9779 20.61 20.8038 20.8389 20.7084 21.1033C20.6432 21.2992 20.6149 21.5055 20.625 21.7116V25.8783H18.125C18.125 25.8783 18.125 19.0616 18.125 18.3783H20.625V19.4366C20.8521 19.0426 21.1825 18.7179 21.5804 18.4976C21.9784 18.2774 22.4288 18.1698 22.8834 18.1866C24.55 18.1866 25.7584 19.2616 25.7584 21.57V25.8866Z" fill="#0D0D0D"/>
</svg>
