<svg width="40" height="41" viewBox="0 0 40 41" fill="none" xmlns="http://www.w3.org/2000/svg">
<rect x="3.05176e-05" y="0.27002" width="40" height="40" rx="20" fill="#017373"/>
<path d="M28.3334 15.1035C27.707 15.3753 27.0445 15.5549 26.3667 15.6369C27.0818 15.2096 27.6177 14.5375 27.875 13.7452C27.203 14.1452 26.4673 14.4271 25.7 14.5785C25.1871 14.0223 24.5042 13.6521 23.7582 13.5259C23.0122 13.3997 22.2455 13.5247 21.5782 13.8812C20.9109 14.2377 20.3808 14.8056 20.0711 15.4959C19.7613 16.1861 19.6894 16.9597 19.8667 17.6952C18.5079 17.6265 17.1787 17.2727 15.9656 16.6567C14.7524 16.0408 13.6824 15.1766 12.825 14.1202C12.5243 14.6453 12.3663 15.24 12.3667 15.8452C12.3656 16.4072 12.5035 16.9607 12.7681 17.4565C13.0328 17.9523 13.4159 18.375 13.8834 18.6869C13.34 18.6721 12.8083 18.5263 12.3334 18.2619V18.3035C12.3374 19.0909 12.6133 19.8528 13.1144 20.4602C13.6155 21.0676 14.3111 21.4832 15.0834 21.6369C14.7861 21.7273 14.4774 21.775 14.1667 21.7785C13.9516 21.776 13.737 21.7565 13.525 21.7202C13.7449 22.3975 14.1705 22.9895 14.7426 23.4137C15.3146 23.8378 16.0047 24.0732 16.7167 24.0869C15.5144 25.0329 14.0299 25.5492 12.5 25.5535C12.2215 25.5544 11.9431 25.5377 11.6667 25.5035C13.2287 26.5121 15.049 27.0475 16.9084 27.0452C18.1914 27.0585 19.4643 26.816 20.6526 26.3319C21.8409 25.8478 22.9209 25.1318 23.8294 24.2256C24.7378 23.3195 25.4567 22.2414 25.9438 21.0543C26.431 19.8672 26.6767 18.595 26.6667 17.3119C26.6667 17.1702 26.6667 17.0202 26.6667 16.8702C27.3206 16.3825 27.8846 15.7847 28.3334 15.1035Z" fill="#0D0D0D"/>
</svg>
