<svg width="40" height="41" viewBox="0 0 40 41" fill="none" xmlns="http://www.w3.org/2000/svg">
<rect y="0.27002" width="40" height="40" rx="20" fill="#017373"/>
<path d="M29.1667 18.3619C29.2079 17.1691 28.947 15.9853 28.4083 14.9203C28.0428 14.4832 27.5356 14.1883 26.975 14.0869C24.6563 13.8765 22.3279 13.7903 20 13.8286C17.6805 13.7885 15.3606 13.872 13.05 14.0786C12.5932 14.1617 12.1704 14.376 11.8333 14.6953C11.0833 15.3869 11 16.5703 10.9167 17.5703C10.7958 19.3682 10.7958 21.1723 10.9167 22.9703C10.9408 23.5331 11.0246 24.0918 11.1667 24.6369C11.2671 25.0578 11.4704 25.4472 11.7583 25.7703C12.0977 26.1065 12.5303 26.3329 13 26.4202C14.7966 26.642 16.6069 26.7339 18.4167 26.6952C21.3333 26.7369 23.8917 26.6953 26.9167 26.4619C27.3979 26.38 27.8427 26.1532 28.1917 25.8119C28.425 25.5785 28.5992 25.2928 28.7 24.9786C28.998 24.0641 29.1444 23.107 29.1333 22.1453C29.1667 21.6786 29.1667 18.8619 29.1667 18.3619ZM18.1167 22.6453V17.4869L23.05 20.0786C21.6667 20.8453 19.8417 21.7119 18.1167 22.6453Z" fill="#0D0D0D"/>
</svg>
